<mxfile host="app.diagrams.net" modified="2023-01-17T23:03:20.760Z" agent="5.0 (Macintosh; Intel Mac OS X 10_15_7) AppleWebKit/537.36 (KHTML, like Gecko) Chrome/108.0.0.0 Safari/537.36" etag="fXa8okW_A91EPe4jfy2F" version="20.7.4" type="github">
  <diagram name="Page-1" id="c7558073-3199-34d8-9f00-42111426c3f3">
    <mxGraphModel dx="454" dy="646" grid="1" gridSize="10" guides="1" tooltips="1" connect="1" arrows="1" fold="1" page="1" pageScale="1" pageWidth="480" pageHeight="150" background="#ffffff" math="1" shadow="0">
      <root>
        <mxCell id="0" />
        <mxCell id="1" parent="0" />
        <mxCell id="kpd2LytfiKgkB2pnJVpS-15" value="" style="group" parent="1" vertex="1" connectable="0">
          <mxGeometry x="99.11636942675159" y="9.998823529411766" width="371.44554140127383" height="29.12117647058824" as="geometry" />
        </mxCell>
        <mxCell id="kpd2LytfiKgkB2pnJVpS-16" value="P&lt;sub&gt;1&lt;/sub&gt;" style="rounded=1;whiteSpace=wrap;html=1;strokeWidth=2;fontFamily=Times New Roman;fontSize=15;" parent="kpd2LytfiKgkB2pnJVpS-15" vertex="1">
          <mxGeometry y="0.0035294117647026724" width="41.273885350318466" height="29.11764705882353" as="geometry" />
        </mxCell>
        <mxCell id="kpd2LytfiKgkB2pnJVpS-17" value="P&lt;sub&gt;2&lt;/sub&gt;" style="rounded=1;whiteSpace=wrap;html=1;strokeWidth=2;fontFamily=Times New Roman;fontSize=15;" parent="kpd2LytfiKgkB2pnJVpS-15" vertex="1">
          <mxGeometry x="41.27388535031844" y="0.0035294117647026724" width="41.273885350318466" height="29.11764705882353" as="geometry" />
        </mxCell>
        <mxCell id="kpd2LytfiKgkB2pnJVpS-18" value="P&lt;span style=&quot;font-size: 12.5px;&quot;&gt;&lt;sub&gt;3&lt;/sub&gt;&lt;/span&gt;" style="rounded=1;whiteSpace=wrap;html=1;strokeWidth=2;fontFamily=Times New Roman;fontSize=15;" parent="kpd2LytfiKgkB2pnJVpS-15" vertex="1">
          <mxGeometry x="82.54777070063687" y="0.0035294117647026724" width="41.273885350318466" height="29.11764705882353" as="geometry" />
        </mxCell>
        <mxCell id="kpd2LytfiKgkB2pnJVpS-19" value="P&lt;span style=&quot;font-size: 12.5px;&quot;&gt;&lt;sub&gt;4&lt;/sub&gt;&lt;/span&gt;" style="rounded=1;whiteSpace=wrap;html=1;strokeWidth=2;fontFamily=Times New Roman;fontSize=15;" parent="kpd2LytfiKgkB2pnJVpS-15" vertex="1">
          <mxGeometry x="123.82140127388527" y="0.0035294117647026724" width="41.273885350318466" height="29.11764705882353" as="geometry" />
        </mxCell>
        <mxCell id="kpd2LytfiKgkB2pnJVpS-20" value="P&lt;span style=&quot;font-size: 12.5px;&quot;&gt;&lt;sub&gt;5&lt;/sub&gt;&lt;/span&gt;" style="rounded=1;whiteSpace=wrap;html=1;strokeWidth=2;fontFamily=Times New Roman;fontSize=15;" parent="kpd2LytfiKgkB2pnJVpS-15" vertex="1">
          <mxGeometry x="165.0916560509554" width="41.273885350318466" height="29.11764705882353" as="geometry" />
        </mxCell>
        <mxCell id="kpd2LytfiKgkB2pnJVpS-21" value="P&lt;span style=&quot;font-size: 12.5px;&quot;&gt;&lt;sub&gt;5&lt;/sub&gt;&lt;/span&gt;" style="rounded=1;whiteSpace=wrap;html=1;strokeWidth=2;fontFamily=Times New Roman;fontSize=15;" parent="kpd2LytfiKgkB2pnJVpS-15" vertex="1">
          <mxGeometry x="206.36165605095545" width="41.273885350318466" height="29.11764705882353" as="geometry" />
        </mxCell>
        <mxCell id="kpd2LytfiKgkB2pnJVpS-22" value="P&lt;span style=&quot;font-size: 12.5px;&quot;&gt;&lt;sub&gt;6&lt;/sub&gt;&lt;/span&gt;" style="rounded=1;whiteSpace=wrap;html=1;strokeWidth=2;fontFamily=Times New Roman;fontSize=15;" parent="kpd2LytfiKgkB2pnJVpS-15" vertex="1">
          <mxGeometry x="247.63165605095543" width="41.273885350318466" height="29.11764705882353" as="geometry" />
        </mxCell>
        <mxCell id="kpd2LytfiKgkB2pnJVpS-23" value="P&lt;span style=&quot;font-size: 12.5px;&quot;&gt;&lt;sub&gt;7&lt;/sub&gt;&lt;/span&gt;" style="rounded=1;whiteSpace=wrap;html=1;strokeWidth=2;fontFamily=Times New Roman;fontSize=15;" parent="kpd2LytfiKgkB2pnJVpS-15" vertex="1">
          <mxGeometry x="288.90165605095535" width="41.273885350318466" height="29.11764705882353" as="geometry" />
        </mxCell>
        <mxCell id="kpd2LytfiKgkB2pnJVpS-24" value="P&lt;span style=&quot;font-size: 12.5px;&quot;&gt;&lt;sub&gt;8&lt;/sub&gt;&lt;/span&gt;" style="rounded=1;whiteSpace=wrap;html=1;strokeWidth=2;fontFamily=Times New Roman;fontSize=15;" parent="kpd2LytfiKgkB2pnJVpS-15" vertex="1">
          <mxGeometry x="330.1716560509554" width="41.273885350318466" height="29.11764705882353" as="geometry" />
        </mxCell>
        <mxCell id="kpd2LytfiKgkB2pnJVpS-35" value="Passages" style="text;html=1;strokeColor=none;fillColor=none;align=center;verticalAlign=middle;whiteSpace=wrap;rounded=0;labelBorderColor=#FFFFFF;strokeWidth=2;fontFamily=Times New Roman;fontSize=15;fontColor=#000000;" parent="1" vertex="1">
          <mxGeometry x="9" y="10" width="88.53" height="29.12" as="geometry" />
        </mxCell>
        <mxCell id="xXb-0AvfDkPHTkJj-rtv-300" value="Exact Match&lt;br&gt;Pattern" style="text;html=1;strokeColor=none;fillColor=none;align=center;verticalAlign=middle;whiteSpace=wrap;rounded=0;labelBorderColor=#FFFFFF;strokeWidth=2;fontFamily=Times New Roman;fontSize=15;fontColor=#000000;" parent="1" vertex="1">
          <mxGeometry x="9.000000000000085" y="59.998823529411766" width="88.53" height="29.12" as="geometry" />
        </mxCell>
        <mxCell id="kpd2LytfiKgkB2pnJVpS-25" value="" style="group" parent="1" vertex="1" connectable="0">
          <mxGeometry x="98.99636942675161" y="59.998823529411766" width="371.44554140127383" height="29.12117647058824" as="geometry" />
        </mxCell>
        <mxCell id="kpd2LytfiKgkB2pnJVpS-26" value="0" style="rounded=1;whiteSpace=wrap;html=1;strokeWidth=2;fontFamily=Times New Roman;fontSize=15;" parent="kpd2LytfiKgkB2pnJVpS-25" vertex="1">
          <mxGeometry y="0.0035294117647026724" width="41.273885350318466" height="29.11764705882353" as="geometry" />
        </mxCell>
        <mxCell id="kpd2LytfiKgkB2pnJVpS-27" value="0" style="rounded=1;whiteSpace=wrap;html=1;strokeWidth=2;fontFamily=Times New Roman;fontSize=15;" parent="kpd2LytfiKgkB2pnJVpS-25" vertex="1">
          <mxGeometry x="41.27388535031844" y="0.0035294117647026724" width="41.273885350318466" height="29.11764705882353" as="geometry" />
        </mxCell>
        <mxCell id="kpd2LytfiKgkB2pnJVpS-28" value="1" style="rounded=1;whiteSpace=wrap;html=1;strokeWidth=2;fontFamily=Times New Roman;fontSize=15;" parent="kpd2LytfiKgkB2pnJVpS-25" vertex="1">
          <mxGeometry x="82.54777070063687" y="0.0035294117647026724" width="41.273885350318466" height="29.11764705882353" as="geometry" />
        </mxCell>
        <mxCell id="kpd2LytfiKgkB2pnJVpS-29" value="1" style="rounded=1;whiteSpace=wrap;html=1;strokeWidth=2;fontFamily=Times New Roman;fontSize=15;" parent="kpd2LytfiKgkB2pnJVpS-25" vertex="1">
          <mxGeometry x="123.82140127388527" y="0.0035294117647026724" width="41.273885350318466" height="29.11764705882353" as="geometry" />
        </mxCell>
        <mxCell id="kpd2LytfiKgkB2pnJVpS-30" value="0" style="rounded=1;whiteSpace=wrap;html=1;strokeWidth=2;fontFamily=Times New Roman;fontSize=15;" parent="kpd2LytfiKgkB2pnJVpS-25" vertex="1">
          <mxGeometry x="165.0916560509554" width="41.273885350318466" height="29.11764705882353" as="geometry" />
        </mxCell>
        <mxCell id="kpd2LytfiKgkB2pnJVpS-31" value="0" style="rounded=1;whiteSpace=wrap;html=1;strokeWidth=2;fontFamily=Times New Roman;fontSize=15;" parent="kpd2LytfiKgkB2pnJVpS-25" vertex="1">
          <mxGeometry x="206.36165605095545" width="41.273885350318466" height="29.11764705882353" as="geometry" />
        </mxCell>
        <mxCell id="kpd2LytfiKgkB2pnJVpS-32" value="0" style="rounded=1;whiteSpace=wrap;html=1;strokeWidth=2;fontFamily=Times New Roman;fontSize=15;" parent="kpd2LytfiKgkB2pnJVpS-25" vertex="1">
          <mxGeometry x="247.63165605095543" width="41.273885350318466" height="29.11764705882353" as="geometry" />
        </mxCell>
        <mxCell id="kpd2LytfiKgkB2pnJVpS-33" value="1" style="rounded=1;whiteSpace=wrap;html=1;strokeWidth=2;fontFamily=Times New Roman;fontSize=15;" parent="kpd2LytfiKgkB2pnJVpS-25" vertex="1">
          <mxGeometry x="288.90165605095535" width="41.273885350318466" height="29.11764705882353" as="geometry" />
        </mxCell>
        <mxCell id="kpd2LytfiKgkB2pnJVpS-34" value="0" style="rounded=1;whiteSpace=wrap;html=1;strokeWidth=2;fontFamily=Times New Roman;fontSize=15;" parent="kpd2LytfiKgkB2pnJVpS-25" vertex="1">
          <mxGeometry x="330.1716560509554" width="41.273885350318466" height="29.11764705882353" as="geometry" />
        </mxCell>
        <mxCell id="xXb-0AvfDkPHTkJj-rtv-301" value="Accumulated Exact Match" style="text;html=1;strokeColor=none;fillColor=none;align=center;verticalAlign=middle;whiteSpace=wrap;rounded=0;labelBorderColor=#FFFFFF;strokeWidth=2;fontFamily=Times New Roman;fontSize=15;fontColor=#000000;" parent="1" vertex="1">
          <mxGeometry x="9" y="110" width="86.94" height="29.12" as="geometry" />
        </mxCell>
        <mxCell id="kpd2LytfiKgkB2pnJVpS-14" value="" style="group" parent="1" vertex="1" connectable="0">
          <mxGeometry x="98.99636942675158" y="109.99882352941177" width="371.44554140127383" height="29.12117647058824" as="geometry" />
        </mxCell>
        <mxCell id="xXb-0AvfDkPHTkJj-rtv-210" value="0" style="rounded=1;whiteSpace=wrap;html=1;strokeWidth=2;fontFamily=Times New Roman;fontSize=15;" parent="kpd2LytfiKgkB2pnJVpS-14" vertex="1">
          <mxGeometry y="0.0035294117647026724" width="41.273885350318466" height="29.11764705882353" as="geometry" />
        </mxCell>
        <mxCell id="xXb-0AvfDkPHTkJj-rtv-211" value="0" style="rounded=1;whiteSpace=wrap;html=1;strokeWidth=2;fontFamily=Times New Roman;fontSize=15;" parent="kpd2LytfiKgkB2pnJVpS-14" vertex="1">
          <mxGeometry x="41.27388535031844" y="0.0035294117647026724" width="41.273885350318466" height="29.11764705882353" as="geometry" />
        </mxCell>
        <mxCell id="xXb-0AvfDkPHTkJj-rtv-212" value="1" style="rounded=1;whiteSpace=wrap;html=1;strokeWidth=2;fontFamily=Times New Roman;fontSize=15;" parent="kpd2LytfiKgkB2pnJVpS-14" vertex="1">
          <mxGeometry x="82.54777070063687" y="0.0035294117647026724" width="41.273885350318466" height="29.11764705882353" as="geometry" />
        </mxCell>
        <mxCell id="xXb-0AvfDkPHTkJj-rtv-213" value="1" style="rounded=1;whiteSpace=wrap;html=1;strokeWidth=2;fontFamily=Times New Roman;fontSize=15;" parent="kpd2LytfiKgkB2pnJVpS-14" vertex="1">
          <mxGeometry x="123.82140127388527" y="0.0035294117647026724" width="41.273885350318466" height="29.11764705882353" as="geometry" />
        </mxCell>
        <mxCell id="kpd2LytfiKgkB2pnJVpS-7" value="1" style="rounded=1;whiteSpace=wrap;html=1;strokeWidth=2;fontFamily=Times New Roman;fontSize=15;" parent="kpd2LytfiKgkB2pnJVpS-14" vertex="1">
          <mxGeometry x="165.0916560509554" width="41.273885350318466" height="29.11764705882353" as="geometry" />
        </mxCell>
        <mxCell id="kpd2LytfiKgkB2pnJVpS-8" value="1" style="rounded=1;whiteSpace=wrap;html=1;strokeWidth=2;fontFamily=Times New Roman;fontSize=15;" parent="kpd2LytfiKgkB2pnJVpS-14" vertex="1">
          <mxGeometry x="206.36165605095545" width="41.273885350318466" height="29.11764705882353" as="geometry" />
        </mxCell>
        <mxCell id="kpd2LytfiKgkB2pnJVpS-9" value="1" style="rounded=1;whiteSpace=wrap;html=1;strokeWidth=2;fontFamily=Times New Roman;fontSize=15;" parent="kpd2LytfiKgkB2pnJVpS-14" vertex="1">
          <mxGeometry x="247.63165605095543" width="41.273885350318466" height="29.11764705882353" as="geometry" />
        </mxCell>
        <mxCell id="kpd2LytfiKgkB2pnJVpS-10" value="1" style="rounded=1;whiteSpace=wrap;html=1;strokeWidth=2;fontFamily=Times New Roman;fontSize=15;" parent="kpd2LytfiKgkB2pnJVpS-14" vertex="1">
          <mxGeometry x="288.90165605095535" width="41.273885350318466" height="29.11764705882353" as="geometry" />
        </mxCell>
        <mxCell id="kpd2LytfiKgkB2pnJVpS-13" value="1" style="rounded=1;whiteSpace=wrap;html=1;strokeWidth=2;fontFamily=Times New Roman;fontSize=15;" parent="kpd2LytfiKgkB2pnJVpS-14" vertex="1">
          <mxGeometry x="330.1716560509554" width="41.273885350318466" height="29.11764705882353" as="geometry" />
        </mxCell>
      </root>
    </mxGraphModel>
  </diagram>
</mxfile>
